<?xml version="1.0" standalone="no"?>
<!DOCTYPE svg PUBLIC "-//W3C//DTD SVG 20010904//EN"
 "http://www.w3.org/TR/2001/REC-SVG-20010904/DTD/svg10.dtd">
<svg version="1.0" xmlns="http://www.w3.org/2000/svg"
 width="600.000000pt" height="480.000000pt" viewBox="0 0 600.000000 480.000000"
 preserveAspectRatio="xMidYMid meet">

<g transform="translate(0.000000,480.000000) scale(0.100000,-0.100000)"
fill="#000000" stroke="none">
<path d="M2840 3824 c-126 -55 -183 -215 -120 -339 52 -100 174 -153 281 -121
214 62 244 359 45 452 -60 28 -151 32 -206 8z"/>
<path d="M3585 3780 c-116 -23 -130 -28 -127 -46 2 -10 4 -56 5 -100 1 -73 -2
-88 -31 -146 -63 -129 -217 -237 -372 -261 l-70 -11 0 -116 0 -115 36 -29 c85
-68 83 -183 -6 -243 -41 -29 -118 -31 -162 -5 -92 54 -94 196 -3 255 l35 22
-2 115 -3 115 -47 7 c-172 24 -323 124 -395 260 -26 49 -28 62 -28 164 l0 111
-111 21 c-139 28 -150 28 -158 0 -14 -53 -6 -236 14 -312 42 -166 149 -301
291 -370 l77 -36 10 -73 c6 -39 23 -165 38 -279 l28 -208 332 0 332 0 5 28 c2
15 20 141 38 280 l34 253 80 39 c170 82 273 234 306 450 11 73 6 221 -9 245
-5 8 -41 4 -137 -15z"/>
<path d="M3578 3010 c-108 -59 -137 -204 -58 -294 l29 -33 -37 -63 c-101 -171
-316 -342 -528 -419 -156 -57 -358 -67 -456 -24 -102 46 -168 155 -168 277 0
85 22 153 75 230 42 62 43 65 38 125 -3 34 -11 64 -16 68 -18 11 -115 -107
-157 -192 -64 -127 -83 -252 -56 -366 44 -188 205 -289 461 -290 124 0 220 18
334 63 233 92 463 294 565 496 25 49 29 52 64 52 72 1 157 58 181 123 18 46
13 124 -9 167 -30 59 -88 94 -164 97 -46 3 -70 -2 -98 -17z m158 -46 c101 -48
98 -203 -6 -257 -89 -46 -201 24 -202 125 -2 111 107 180 208 132z"/>
<path d="M3607 2910 c-70 -55 -25 -170 66 -170 30 0 75 35 88 68 12 32 -5 87
-34 107 -31 21 -89 19 -120 -5z"/>
<path d="M2882 2887 c-29 -31 -28 -72 3 -102 30 -30 64 -32 99 -4 33 26 36 79
6 109 -28 28 -81 26 -108 -3z"/>
<path d="M2818 1738 c-74 -20 -128 -115 -107 -191 22 -80 85 -123 168 -115 87
9 141 70 141 161 0 100 -101 172 -202 145z m104 -98 c25 -26 29 -36 24 -63 -9
-46 -38 -71 -82 -71 -73 0 -111 88 -59 139 34 35 78 33 117 -5z"/>
<path d="M1689 1713 c-27 -71 -99 -271 -99 -277 0 -3 17 -6 38 -6 33 0 39 4
49 30 11 28 15 30 63 30 48 0 52 -2 63 -30 10 -26 16 -30 49 -30 21 0 38 3 38
8 0 4 -24 72 -54 152 l-54 145 -41 3 c-37 3 -42 0 -52 -25z m65 -115 c9 -35 8
-38 -18 -38 -23 0 -24 2 -13 30 14 36 23 38 31 8z"/>
<path d="M2010 1584 l0 -155 38 3 c37 3 37 3 40 51 3 43 5 47 29 47 80 0 138
76 109 144 -22 53 -50 66 -138 66 l-78 0 0 -156z m149 62 c4 -22 -23 -46 -51
-46 -14 0 -18 8 -18 36 0 34 1 35 32 32 23 -2 34 -9 37 -22z"/>
<path d="M2370 1584 l0 -155 38 3 c37 3 37 3 40 51 3 43 5 47 29 47 101 0 153
112 84 181 -28 27 -34 29 -110 29 l-81 0 0 -156z m149 62 c4 -22 -23 -46 -51
-46 -14 0 -18 8 -18 36 0 34 1 35 32 32 23 -2 34 -9 37 -22z"/>
<path d="M3152 1588 l3 -153 38 -3 37 -3 0 155 0 156 -40 0 -41 0 3 -152z"/>
<path d="M3382 1588 l3 -153 38 -3 37 -3 0 88 1 88 56 -87 c49 -77 59 -88 84
-88 l29 0 0 155 0 155 -35 0 -35 0 0 -77 0 -78 -50 78 c-49 75 -51 77 -90 77
l-41 0 3 -152z"/>
<path d="M3760 1705 c0 -34 1 -35 40 -35 l40 0 0 -120 0 -120 35 0 35 0 0 120
0 120 40 0 c39 0 40 1 40 35 l0 35 -115 0 -115 0 0 -35z"/>
<path d="M4114 1725 c3 -9 24 -42 46 -76 l41 -60 -45 -71 c-25 -39 -46 -75
-46 -80 0 -4 18 -8 40 -8 37 0 42 3 71 51 l31 50 34 -50 c32 -47 37 -51 75
-51 49 0 48 3 -12 91 -22 33 -38 67 -35 75 3 8 24 41 46 74 22 32 40 61 40 64
0 4 -19 6 -42 6 -40 0 -45 -3 -72 -46 l-30 -47 -23 29 c-13 16 -26 37 -29 47
-4 13 -16 17 -51 17 -36 0 -44 -3 -39 -15z"/>
</g>
</svg>
