<?xml version="1.0" standalone="no"?>
<!DOCTYPE svg PUBLIC "-//W3C//DTD SVG 20010904//EN"
 "http://www.w3.org/TR/2001/REC-SVG-20010904/DTD/svg10.dtd">
<svg version="1.0" xmlns="http://www.w3.org/2000/svg"
 width="307.000000pt" height="251.000000pt" viewBox="0 0 307.000000 251.000000"
 preserveAspectRatio="xMidYMid meet">

<g transform="translate(0.000000,251.000000) scale(0.100000,-0.100000)"
fill="#000000" stroke="none">
<path d="M1350 2484 c-45 -19 -97 -69 -121 -116 -96 -186 82 -403 283 -344
213 62 242 360 44 452 -60 28 -151 32 -206 8z"/>
<path d="M2095 2441 c-71 -14 -131 -25 -132 -26 -2 -1 2 -28 8 -60 22 -119
-22 -237 -124 -331 -86 -80 -229 -144 -321 -144 l-26 0 0 -115 0 -115 44 -43
c56 -54 67 -99 40 -165 -28 -68 -73 -95 -147 -90 -49 4 -62 9 -92 38 -71 69
-62 173 20 236 l36 27 -3 110 -3 111 -65 12 c-94 18 -172 49 -237 98 -69 50
-105 91 -141 160 -25 47 -27 61 -27 162 l0 111 -111 21 c-139 28 -150 28 -158
0 -14 -53 -6 -236 14 -312 46 -180 169 -326 324 -383 l44 -16 31 -231 c17
-127 34 -255 38 -283 l6 -53 332 0 333 0 10 73 c6 39 23 166 39 280 l27 208
74 34 c141 65 253 206 298 375 19 71 24 279 8 315 l-9 21 -130 -25z"/>
<path d="M2088 1670 c-108 -57 -137 -204 -58 -294 l29 -33 -37 -64 c-78 -134
-288 -313 -457 -389 -129 -58 -206 -74 -350 -75 -116 0 -135 3 -176 23 -60 30
-112 82 -141 141 -19 38 -23 62 -23 141 0 82 4 103 27 153 15 32 41 74 57 94
28 34 30 40 24 102 -3 36 -9 70 -13 74 -12 13 -116 -110 -154 -183 -136 -258
-82 -511 131 -619 79 -40 166 -53 308 -48 105 4 146 10 215 32 267 85 510 281
637 510 l38 70 48 2 c56 2 99 25 140 76 26 31 32 49 35 101 4 64 -9 107 -47
150 -49 55 -162 73 -233 36z m158 -46 c91 -43 100 -183 17 -242 -63 -44 -141
-35 -191 22 -41 47 -48 94 -23 151 34 77 118 106 197 69z"/>
<path d="M2115 1568 c-15 -14 -28 -38 -32 -60 -5 -33 -2 -41 30 -73 25 -25 44
-35 65 -35 38 0 88 41 95 77 7 35 -15 88 -41 102 -35 18 -89 13 -117 -11z"/>
<path d="M1392 1547 c-29 -31 -28 -72 3 -102 30 -30 64 -32 99 -4 33 26 36 79
6 109 -28 28 -81 26 -108 -3z"/>
<path d="M1325 400 c-67 -21 -124 -114 -108 -180 25 -107 149 -164 234 -107
102 69 106 198 9 268 -31 23 -95 31 -135 19z m103 -90 c62 -58 14 -153 -73
-141 -30 3 -65 48 -65 82 0 66 89 104 138 59z"/>
<path d="M199 373 c-71 -186 -98 -268 -89 -273 22 -13 68 2 79 26 9 21 17 24
61 24 44 0 52 -3 61 -24 8 -17 21 -25 46 -28 19 -2 36 -1 38 3 3 3 -19 71 -48
150 l-53 144 -42 3 c-38 3 -43 1 -53 -25z m65 -109 c11 -29 6 -44 -14 -44 -22
0 -23 3 -14 38 7 26 19 29 28 6z"/>
<path d="M520 250 l0 -150 40 0 40 0 0 44 0 45 44 6 c62 10 99 49 99 106 0 35
-6 48 -32 71 -29 26 -38 28 -111 28 l-80 0 0 -150z m145 50 c0 -21 -5 -26 -32
-28 -31 -3 -33 -1 -33 28 0 29 2 31 33 28 27 -2 32 -7 32 -28z"/>
<path d="M880 250 l0 -150 40 0 40 0 0 44 c0 44 0 44 42 51 93 16 131 113 69
176 -28 27 -34 29 -110 29 l-81 0 0 -150z m145 50 c0 -21 -5 -26 -32 -28 -31
-3 -33 -1 -33 28 0 29 2 31 33 28 27 -2 32 -7 32 -28z"/>
<path d="M1660 250 l0 -150 40 0 40 0 0 150 0 150 -40 0 -40 0 0 -150z"/>
<path d="M1890 250 l0 -150 40 0 39 0 3 81 3 82 49 -78 c46 -73 76 -98 104
-88 9 4 12 44 12 154 l0 149 -35 0 -34 0 -3 -72 -3 -73 -47 73 c-46 70 -49 72
-88 72 l-40 0 0 -150z"/>
<path d="M2270 365 c0 -34 1 -35 40 -35 l40 0 0 -115 0 -115 35 0 35 0 0 115
0 115 40 0 c39 0 40 1 40 35 l0 35 -115 0 -115 0 0 -35z"/>
<path d="M2620 395 c0 -3 20 -36 45 -75 l45 -70 -46 -71 c-25 -39 -43 -73 -41
-75 2 -2 18 -6 36 -8 35 -4 48 5 81 60 l23 36 30 -46 c28 -43 32 -46 74 -46
l45 0 -18 27 c-10 16 -31 49 -47 76 l-30 47 30 48 c16 26 37 59 47 75 l18 27
-45 0 c-44 0 -47 -2 -73 -45 -14 -25 -27 -45 -29 -45 -2 0 -16 20 -32 45 -26
42 -31 45 -70 45 -24 0 -43 -2 -43 -5z"/>
</g>
</svg>
